<svg xmlns:xlink="http://www.w3.org/1999/xlink" width="24" height="24" viewBox="0 0 24 24" fill="none" xmlns="http://www.w3.org/2000/svg" aria-hidden="true" class="styles__StyledInlineSvg-sc-12l8vvi-0 iIiQzo fetched-icon"><path fill-rule="evenodd" clip-rule="evenodd" d="M12.0008 3C9.55657 3 9.24981 3.01069 8.2898 3.05438C7.33167 3.09825 6.67766 3.24994 6.10541 3.4725C5.51346 3.70238 5.01133 4.00989 4.51108 4.51033C4.01045 5.01058 3.70294 5.51271 3.47232 6.10447C3.24919 6.67691 3.09731 7.33111 3.05419 8.28887C3.01125 9.24888 3 9.55582 3 12.0001C3 14.4444 3.01088 14.7502 3.05438 15.7102C3.09844 16.6683 3.25013 17.3223 3.4725 17.8946C3.70257 18.4865 4.01007 18.9887 4.51052 19.4889C5.01058 19.9895 5.51271 20.2978 6.10428 20.5277C6.67691 20.7502 7.33111 20.9019 8.28905 20.9458C9.24906 20.9895 9.55563 21.0002 11.9997 21.0002C14.4442 21.0002 14.75 20.9895 15.71 20.9458C16.6681 20.9019 17.3229 20.7502 17.8955 20.5277C18.4873 20.2978 18.9887 19.9895 19.4887 19.4889C19.9894 18.9887 20.2969 18.4865 20.5275 17.8948C20.7487 17.3223 20.9006 16.6681 20.9456 15.7104C20.9887 14.7504 21 14.4444 21 12.0001C21 9.55582 20.9887 9.24906 20.9456 8.28905C20.9006 7.33092 20.7487 6.67691 20.5275 6.10466C20.2969 5.51271 19.9894 5.01058 19.4887 4.51033C18.9881 4.0097 18.4875 3.70219 17.895 3.4725C17.3212 3.24994 16.6668 3.09825 15.7087 3.05438C14.7487 3.01069 14.4431 3 11.998 3H12.0008ZM11.7009 4.6218L12.0008 4.62189C14.4039 4.62189 14.6887 4.63052 15.6376 4.67364C16.5151 4.71377 16.9914 4.86039 17.3086 4.98358C17.7286 5.14671 18.0281 5.34171 18.3429 5.65671C18.6579 5.97172 18.8529 6.27172 19.0164 6.69173C19.1396 7.0086 19.2864 7.48486 19.3263 8.36237C19.3695 9.31113 19.3788 9.59613 19.3788 11.998C19.3788 14.3999 19.3695 14.6849 19.3263 15.6337C19.2862 16.5112 19.1396 16.9875 19.0164 17.3043C18.8533 17.7243 18.6579 18.0234 18.3429 18.3382C18.0279 18.6532 17.7288 18.8482 17.3086 19.0114C16.9918 19.1351 16.5151 19.2814 15.6376 19.3215C14.6889 19.3646 14.4039 19.374 12.0008 19.374C9.59762 19.374 9.3128 19.3646 8.36404 19.3215C7.48653 19.281 7.01028 19.1344 6.69284 19.0112C6.27283 18.848 5.97283 18.653 5.65783 18.338C5.34282 18.023 5.14782 17.7238 4.98432 17.3036C4.86113 16.9867 4.71432 16.5105 4.67438 15.6329C4.63125 14.6842 4.62263 14.3992 4.62263 11.9958C4.62263 9.59238 4.63125 9.30888 4.67438 8.36012C4.71451 7.48261 4.86113 7.00635 4.98432 6.6891C5.14745 6.2691 5.34282 5.96909 5.65783 5.65409C5.97283 5.33909 6.27283 5.14408 6.69284 4.98058C7.01009 4.85683 7.48653 4.71058 8.36404 4.67027C9.1943 4.63277 9.51606 4.62152 11.1934 4.61964V4.62189C11.3502 4.62165 11.5189 4.62172 11.7009 4.6218ZM15.725 7.19592C15.725 6.59947 16.2088 6.11628 16.805 6.11628C17.4013 6.11628 17.885 6.59966 17.885 7.19592C17.885 7.79217 17.4013 8.27593 16.805 8.27593C16.2088 8.27593 15.725 7.79217 15.725 7.19592ZM12.0006 7.37817C9.44827 7.37827 7.37891 9.44769 7.37891 12.0001C7.37891 14.5526 9.44837 16.6211 12.0008 16.6211C14.5533 16.6211 16.622 14.5526 16.622 12.0001C16.622 9.44763 14.5531 7.37817 12.0006 7.37817ZM15.0009 12.0001C15.0009 10.3431 13.6577 9.00006 12.0009 9.00006C10.3439 9.00006 9.00085 10.3431 9.00085 12.0001C9.00085 13.6569 10.3439 15.0001 12.0009 15.0001C13.6577 15.0001 15.0009 13.6569 15.0009 12.0001Z" fill="#C4C4C4"></path></svg>