<svg xmlns:xlink="http://www.w3.org/1999/xlink" xmlns="http://www.w3.org/2000/svg" height="48" width="144" fill="var(--usage-color-background-default)" x="0px" y="0px" viewBox="0 0 139 44" aria-hidden="true"><path d="M45.616,12.01h-0.952c0-0.131-0.09-0.502-0.271-1.112H43.02c-0.186,0.601-0.28,0.972-0.28,1.112h-0.895 c0-0.077,0.231-0.712,0.694-1.903c0.463-1.192,0.695-1.848,0.695-1.969h1.124c0,0.113,0.21,0.76,0.629,1.941 C45.406,11.259,45.616,11.903,45.616,12.01z M44.242,10.33c-0.339-1.023-0.509-1.576-0.509-1.66h-0.048 c0,0.077-0.175,0.63-0.526,1.66H44.242z" fill="#FFFFFF"></path><path d="M49.451,12.01h-0.735c0-0.081-0.273-0.51-0.818-1.288c-0.571-0.819-0.896-1.379-0.976-1.68h-0.048 c0.049,0.434,0.074,0.827,0.074,1.178c0,0.49,0.014,1.087,0.042,1.79H46.26c0.03-0.615,0.045-1.29,0.045-2.025 c0-0.724-0.015-1.339-0.045-1.847h0.883c0,0.105,0.245,0.524,0.735,1.258c0.521,0.779,0.821,1.308,0.898,1.585h0.045 c-0.048-0.442-0.071-0.839-0.071-1.19c0-0.537-0.014-1.088-0.042-1.654h0.744c-0.028,0.492-0.042,1.107-0.042,1.847 C49.409,10.731,49.423,11.406,49.451,12.01z" fill="#FFFFFF"></path><path d="M53.762,9.94c0,0.563-0.181,1.055-0.541,1.475c-0.361,0.42-0.867,0.631-1.517,0.631 c-0.293,0-0.698-0.012-1.213-0.036c0.026-0.599,0.039-1.274,0.039-2.025c0-0.722-0.013-1.337-0.039-1.847h0.52 c0.085,0,0.212-0.003,0.381-0.009c0.168-0.006,0.278-0.009,0.33-0.009c0.716,0,1.235,0.178,1.557,0.535 C53.601,9.012,53.762,9.441,53.762,9.94z M52.95,10.068c0-0.381-0.111-0.701-0.333-0.962c-0.222-0.261-0.561-0.391-1.017-0.391 c-0.085,0-0.202,0.009-0.351,0.027c0.02,0.397,0.03,0.811,0.03,1.243c0,0.474,0.01,0.944,0.03,1.41 c0.129,0.026,0.258,0.039,0.387,0.039c0.426,0,0.742-0.132,0.947-0.397C52.847,10.772,52.95,10.449,52.95,10.068z" fill="#FFFFFF"></path><path d="M57.737,12.01h-0.88c-0.23-0.702-0.407-1.135-0.529-1.3c-0.123-0.164-0.321-0.247-0.595-0.247 c-0.115,0-0.225,0.001-0.33,0.003c0,0.51,0.009,1.024,0.027,1.544h-0.827c0.026-0.599,0.039-1.274,0.039-2.025 c0-0.722-0.013-1.337-0.039-1.847h0.515c0.06,0,0.184-0.003,0.373-0.009c0.189-0.006,0.364-0.009,0.525-0.009 c0.91,0,1.365,0.311,1.365,0.934c0,0.494-0.26,0.838-0.779,1.032v0.045c0.2,0.056,0.376,0.212,0.526,0.468 C57.278,10.856,57.481,11.326,57.737,12.01z M56.621,9.274c0-0.394-0.254-0.592-0.761-0.592c-0.186,0-0.351,0.014-0.494,0.042 c0.022,0.307,0.033,0.708,0.033,1.202c0.109,0.004,0.201,0.006,0.277,0.006C56.306,9.932,56.621,9.713,56.621,9.274z" fill="#FFFFFF"></path><path d="M62,10.003c0,0.609-0.186,1.113-0.559,1.514c-0.373,0.401-0.834,0.601-1.383,0.601 c-0.523,0-0.962-0.184-1.315-0.552c-0.353-0.368-0.529-0.835-0.529-1.402c0-0.609,0.186-1.113,0.559-1.514 c0.373-0.4,0.834-0.601,1.383-0.601c0.523,0,0.962,0.184,1.315,0.55C61.823,8.966,62,9.434,62,10.003z M61.179,10.089 c0-0.414-0.106-0.75-0.318-1.008c-0.212-0.258-0.474-0.387-0.785-0.387c-0.29,0-0.535,0.13-0.738,0.39 c-0.202,0.26-0.303,0.588-0.303,0.984c0,0.412,0.107,0.748,0.32,1.007c0.213,0.259,0.474,0.388,0.784,0.388 c0.289,0,0.535-0.13,0.738-0.391C61.078,10.811,61.179,10.484,61.179,10.089z" fill="#FFFFFF"></path><path d="M63.682,12.01H62.84c0.026-0.615,0.039-1.29,0.039-2.025c0-0.724-0.013-1.339-0.039-1.847h0.842 c-0.026,0.5-0.039,1.115-0.039,1.847C63.643,10.733,63.656,11.408,63.682,12.01z" fill="#FFFFFF"></path><path d="M67.993,9.94c0,0.563-0.181,1.055-0.541,1.475c-0.361,0.42-0.867,0.631-1.517,0.631 c-0.294,0-0.698-0.012-1.213-0.036c0.026-0.599,0.039-1.274,0.039-2.025c0-0.722-0.013-1.337-0.039-1.847h0.52 c0.085,0,0.212-0.003,0.381-0.009s0.278-0.009,0.33-0.009c0.716,0,1.235,0.178,1.557,0.535C67.831,9.012,67.993,9.441,67.993,9.94z M67.181,10.068c0-0.381-0.111-0.701-0.333-0.962c-0.222-0.261-0.561-0.391-1.017-0.391c-0.085,0-0.202,0.009-0.351,0.027 c0.02,0.397,0.03,0.811,0.03,1.243c0,0.474,0.01,0.944,0.03,1.41c0.129,0.026,0.258,0.039,0.387,0.039 c0.426,0,0.742-0.132,0.947-0.397C67.078,10.772,67.181,10.449,67.181,10.068z" fill="#FFFFFF"></path><path d="M73.712,12.01H72.76c0-0.131-0.09-0.502-0.271-1.112h-1.374c-0.186,0.601-0.28,0.972-0.28,1.112H69.94 c0-0.077,0.231-0.712,0.694-1.903c0.463-1.192,0.694-1.848,0.694-1.969h1.124c0,0.113,0.21,0.76,0.629,1.941 C73.502,11.259,73.712,11.903,73.712,12.01z M72.337,10.33c-0.339-1.023-0.509-1.576-0.509-1.66h-0.048 c0,0.077-0.175,0.63-0.526,1.66H72.337z" fill="#FFFFFF"></path><path d="M77.181,9.152c0,0.474-0.176,0.824-0.528,1.05c-0.352,0.226-0.784,0.339-1.295,0.339 c-0.093,0-0.159-0.002-0.199-0.006c0,0.373,0.011,0.865,0.033,1.475h-0.836c0.026-0.573,0.039-1.248,0.039-2.025 c0-0.714-0.013-1.329-0.039-1.847h0.518c0.073,0,0.214-0.003,0.422-0.009s0.389-0.009,0.541-0.009c0.377,0,0.695,0.085,0.955,0.256 C77.051,8.547,77.181,8.805,77.181,9.152z M76.413,9.316c0-0.424-0.281-0.637-0.845-0.637c-0.141,0-0.29,0.015-0.446,0.045 c0.022,0.375,0.033,0.799,0.033,1.273c0.049,0.004,0.107,0.006,0.172,0.006C76.052,10.003,76.413,9.774,76.413,9.316z" fill="#FFFFFF"></path><path d="M80.748,9.152c0,0.474-0.176,0.824-0.528,1.05c-0.352,0.226-0.784,0.339-1.295,0.339 c-0.093,0-0.159-0.002-0.199-0.006c0,0.373,0.011,0.865,0.033,1.475h-0.836c0.026-0.573,0.039-1.248,0.039-2.025 c0-0.714-0.013-1.329-0.039-1.847h0.518c0.073,0,0.214-0.003,0.422-0.009s0.389-0.009,0.541-0.009c0.377,0,0.695,0.085,0.955,0.256 C80.618,8.547,80.748,8.805,80.748,9.152z M79.981,9.316c0-0.424-0.282-0.637-0.845-0.637c-0.141,0-0.29,0.015-0.446,0.045 c0.022,0.375,0.033,0.799,0.033,1.273c0.049,0.004,0.107,0.006,0.172,0.006C79.619,10.003,79.981,9.774,79.981,9.316z" fill="#FFFFFF"></path><path d="M86.58,10.003c0,0.609-0.186,1.113-0.559,1.514c-0.373,0.401-0.834,0.601-1.383,0.601 c-0.523,0-0.962-0.184-1.315-0.552c-0.353-0.368-0.529-0.835-0.529-1.402c0-0.609,0.186-1.113,0.559-1.514 c0.373-0.4,0.834-0.601,1.383-0.601c0.523,0,0.962,0.184,1.315,0.55C86.403,8.966,86.58,9.434,86.58,10.003z M85.759,10.089 c0-0.414-0.106-0.75-0.318-1.008c-0.212-0.258-0.474-0.387-0.785-0.387c-0.29,0-0.535,0.13-0.738,0.39 c-0.202,0.26-0.303,0.588-0.303,0.984c0,0.412,0.106,0.748,0.32,1.007c0.213,0.259,0.474,0.388,0.783,0.388 c0.29,0,0.535-0.13,0.738-0.391C85.658,10.811,85.759,10.484,85.759,10.089z" fill="#FFFFFF"></path><path d="M90.611,12.01h-0.735c0-0.081-0.273-0.51-0.818-1.288c-0.571-0.819-0.896-1.379-0.976-1.68h-0.048 c0.049,0.434,0.074,0.827,0.074,1.178c0,0.49,0.014,1.087,0.042,1.79H87.42c0.03-0.615,0.045-1.29,0.045-2.025 c0-0.724-0.015-1.339-0.045-1.847h0.883c0,0.105,0.245,0.524,0.735,1.258c0.522,0.779,0.821,1.308,0.898,1.585h0.045 c-0.048-0.442-0.071-0.839-0.071-1.19c0-0.537-0.014-1.088-0.042-1.654h0.744C90.583,8.63,90.57,9.246,90.57,9.985 C90.57,10.731,90.583,11.406,90.611,12.01z" fill="#FFFFFF"></path><path d="M55.525,24.417c0,1.922-0.57,3.454-1.71,4.593c-1.294,1.358-2.979,2.038-5.055,2.038 c-1.986,0-3.675-0.689-5.064-2.066c-1.391-1.377-2.085-3.085-2.085-5.122s0.694-3.744,2.085-5.122 c1.389-1.377,3.078-2.066,5.064-2.066c0.987,0,1.928,0.192,2.825,0.576c0.896,0.384,1.615,0.897,2.152,1.538l-1.211,1.211 c-0.91-1.089-2.166-1.634-3.767-1.634c-1.448,0-2.7,0.509-3.757,1.529c-1.057,1.018-1.586,2.342-1.586,3.968 c0,1.628,0.529,2.95,1.586,3.969c1.057,1.018,2.309,1.528,3.757,1.528c1.538,0,2.819-0.513,3.844-1.538 c0.666-0.667,1.05-1.596,1.153-2.787H48.76v-1.653h6.669C55.493,23.738,55.525,24.084,55.525,24.417z" fill="#FFFFFF"></path><path d="M57.62,22.447c0.91-0.955,2.069-1.432,3.479-1.432c1.409,0,2.568,0.477,3.479,1.432 c0.91,0.955,1.364,2.149,1.364,3.584c0,1.435-0.454,2.63-1.364,3.584c-0.91,0.955-2.07,1.432-3.479,1.432 c-1.41,0-2.569-0.477-3.479-1.432c-0.91-0.955-1.365-2.149-1.365-3.584C56.255,24.596,56.71,23.402,57.62,22.447z M58.937,28.501 c0.608,0.621,1.329,0.933,2.162,0.933c0.833,0,1.553-0.311,2.162-0.933c0.608-0.621,0.913-1.444,0.913-2.469 c0-1.025-0.305-1.848-0.913-2.47c-0.609-0.621-1.33-0.932-2.162-0.932c-0.834,0-1.554,0.31-2.162,0.932 c-0.609,0.622-0.913,1.445-0.913,2.47C58.024,27.057,58.327,27.88,58.937,28.501z" fill="#FFFFFF"></path><path d="M67.903,22.447c0.91-0.955,2.069-1.432,3.479-1.432c1.409,0,2.568,0.477,3.479,1.432 c0.91,0.955,1.364,2.149,1.364,3.584c0,1.435-0.454,2.63-1.364,3.584c-0.91,0.955-2.07,1.432-3.479,1.432 c-1.41,0-2.569-0.477-3.479-1.432c-0.91-0.955-1.365-2.149-1.365-3.584C66.538,24.596,66.993,23.402,67.903,22.447z M69.219,28.501 c0.608,0.621,1.329,0.933,2.162,0.933c0.833,0,1.553-0.311,2.162-0.933c0.608-0.621,0.913-1.444,0.913-2.469 c0-1.025-0.305-1.848-0.913-2.47c-0.609-0.621-1.33-0.932-2.162-0.932c-0.833,0-1.554,0.31-2.162,0.932 c-0.609,0.622-0.913,1.445-0.913,2.47C68.306,27.057,68.61,27.88,69.219,28.501z" fill="#FFFFFF"></path><path d="M81.453,35.199c-1.115,0-2.025-0.278-2.73-0.836c-0.705-0.558-1.211-1.195-1.518-1.913l1.615-0.672 c0.179,0.512,0.509,0.942,0.99,1.287c0.48,0.346,1.027,0.519,1.643,0.519c0.973,0,1.739-0.292,2.297-0.874 c0.558-0.583,0.836-1.374,0.836-2.373v-0.903h-0.077c-0.308,0.461-0.743,0.846-1.307,1.153c-0.564,0.308-1.199,0.462-1.903,0.462 c-1.217,0-2.268-0.481-3.152-1.442c-0.884-0.961-1.326-2.152-1.326-3.575c0-1.422,0.442-2.614,1.326-3.575 c0.884-0.96,1.935-1.441,3.152-1.441c0.704,0,1.339,0.154,1.903,0.461c0.563,0.308,0.999,0.692,1.307,1.154h0.077v-1.308h1.692 v8.937c0,1.615-0.468,2.841-1.403,3.681C83.939,34.779,82.798,35.199,81.453,35.199z M81.587,29.434 c0.833,0,1.541-0.308,2.124-0.923c0.583-0.615,0.874-1.442,0.874-2.479c0-1.038-0.291-1.864-0.874-2.479 c-0.583-0.616-1.291-0.923-2.124-0.923c-0.82,0-1.525,0.31-2.114,0.932c-0.589,0.622-0.884,1.445-0.884,2.47 c0,1.025,0.295,1.848,0.884,2.469C80.062,29.122,80.767,29.434,81.587,29.434z" fill="#FFFFFF"></path><path d="M89.716,30.74h-1.768V16.979h1.768V30.74z" fill="#FFFFFF"></path><path d="M95.559,31.048c-1.422,0-2.579-0.474-3.469-1.423c-0.891-0.947-1.336-2.146-1.336-3.593 c0-1.371,0.432-2.55,1.298-3.537c0.865-0.986,1.97-1.48,3.315-1.48c1.397,0,2.514,0.455,3.354,1.365 c0.839,0.91,1.259,2.127,1.259,3.652l-0.019,0.327h-7.438c0.051,0.948,0.368,1.698,0.951,2.248c0.583,0.551,1.265,0.827,2.047,0.827 c1.268,0,2.127-0.539,2.576-1.614l1.575,0.653c-0.307,0.73-0.814,1.343-1.518,1.836C97.449,30.801,96.584,31.048,95.559,31.048z M98.096,24.898c-0.038-0.539-0.286-1.051-0.74-1.538c-0.455-0.487-1.132-0.73-2.028-0.73c-0.653,0-1.22,0.205-1.701,0.615 c-0.481,0.41-0.811,0.961-0.99,1.653H98.096z" fill="#FFFFFF"></path><path d="M106.937,30.74h-1.769V16.979h4.69c1.166,0,2.175,0.388,3.027,1.163c0.852,0.776,1.278,1.753,1.278,2.931 c0,1.179-0.426,2.157-1.278,2.931c-0.852,0.775-1.861,1.163-3.027,1.163h-2.921V30.74z M106.937,23.476h2.96 c0.743,0,1.339-0.251,1.787-0.75c0.449-0.499,0.673-1.051,0.673-1.653c0-0.602-0.224-1.153-0.673-1.652 c-0.449-0.5-1.045-0.75-1.787-0.75h-2.96V23.476z" fill="#FFFFFF"></path><path d="M117.085,30.74h-1.768V16.979h1.768V30.74z" fill="#FFFFFF"></path><path d="M121.639,31.048c-1,0-1.836-0.289-2.508-0.865c-0.673-0.576-1.01-1.339-1.01-2.287 c0-1.025,0.397-1.829,1.192-2.412c0.794-0.583,1.774-0.874,2.94-0.874c1.038,0,1.89,0.192,2.556,0.576v-0.269 c0-0.692-0.237-1.246-0.711-1.662c-0.474-0.417-1.057-0.625-1.749-0.625c-0.513,0-0.978,0.122-1.393,0.365 c-0.417,0.243-0.702,0.576-0.856,0.999l-1.614-0.692c0.218-0.563,0.647-1.086,1.288-1.566c0.64-0.481,1.486-0.721,2.537-0.721 c1.204,0,2.203,0.353,2.998,1.057c0.794,0.705,1.191,1.698,1.191,2.979v5.689h-1.691v-1.307h-0.076 C124.029,30.509,122.997,31.048,121.639,31.048z M121.927,29.434c0.73,0,1.393-0.273,1.99-0.817 c0.596-0.544,0.893-1.188,0.893-1.931c-0.499-0.41-1.249-0.615-2.248-0.615c-0.859,0-1.506,0.186-1.941,0.557 c-0.436,0.372-0.653,0.807-0.653,1.307c0,0.461,0.198,0.826,0.596,1.096C120.96,29.298,121.415,29.434,121.927,29.434z" fill="#FFFFFF"></path><path d="M130.347,34.891h-1.826l2.191-4.747l-3.882-8.822h1.922l2.807,6.766h0.038l2.729-6.766h1.922L130.347,34.891z" fill="#FFFFFF"></path><path d="M8.629,23.626c0-4.395,0.002-8.791-0.002-13.186C8.627,9.9,8.732,9.408,9.114,9 C9.262,8.842,9.369,8.8,9.552,8.985c2.958,3.018,5.922,6.029,8.886,9.04c1.92,1.95,3.838,3.901,5.765,5.844 c0.187,0.188,0.203,0.287,0.005,0.484c-4.714,4.687-9.424,9.379-14.121,14.082c-0.287,0.287-0.488,0.257-0.764,0.045 c-0.503-0.387-0.696-0.906-0.696-1.523c0.001-2.603-0.004-5.207-0.005-7.81c-0.001-1.841,0-3.681,0-5.522 C8.624,23.626,8.627,23.626,8.629,23.626z" fill="#FFFFFF"></path><path d="M10.319,8.499c0.36-0.003,0.613,0.101,0.857,0.238c6.02,3.373,12.039,6.748,18.062,10.114 c0.277,0.155,0.271,0.241,0.057,0.451c-1.346,1.325-2.682,2.66-4.017,3.996c-0.144,0.144-0.232,0.228-0.425,0.031 c-4.789-4.884-9.586-9.762-14.381-14.641C10.434,8.648,10.401,8.599,10.319,8.499z" fill="#FFFFFF"></path><path d="M11.666,38.324c4.37-4.417,8.742-8.83,13.101-13.257c0.271-0.275,0.396-0.238,0.639,0.014 c1.107,1.153,2.231,2.291,3.36,3.423c0.199,0.199,0.215,0.281-0.054,0.428c-5.609,3.07-11.214,6.15-16.819,9.227 C11.8,38.21,11.714,38.293,11.666,38.324z" fill="#FFFFFF"></path><path d="M36.628,23.748c-0.019,0.495-0.253,0.843-0.606,1.104c-0.262,0.193-0.55,0.352-0.836,0.51 c-1.696,0.938-3.397,1.866-5.089,2.81c-0.228,0.127-0.364,0.122-0.553-0.074c-1.205-1.244-2.42-2.479-3.642-3.706 c-0.178-0.179-0.183-0.277,0-0.456c1.424-1.403,2.84-2.813,4.249-4.23c0.166-0.167,0.285-0.186,0.493-0.069 c1.675,0.949,3.358,1.885,5.038,2.827C36.201,22.756,36.605,23.133,36.628,23.748z" fill="#FFFFFF"></path></svg>