<svg xmlns:xlink="http://www.w3.org/1999/xlink" width="24" height="24" viewBox="0 0 24 24" fill="none" xmlns="http://www.w3.org/2000/svg" aria-hidden="false" class="styles__StyledInlineSvg-sc-12l8vvi-0 iIiQzo fetched-icon"><title fill="none">Warning icon</title><path fill-rule="evenodd" clip-rule="evenodd" d="M15.0701 3.27438C14.8725 2.93825 14.661 2.57848 14.4559 2.29313C14.2442 1.99859 13.8566 1.51236 13.2113 1.22758C12.4397 0.887031 11.5603 0.887031 10.7887 1.22758C10.1434 1.51236 9.75582 1.99859 9.54412 2.29313C9.33903 2.57849 9.12752 2.93826 8.92992 3.27439L1.66117 15.6313C1.45818 15.9762 1.24234 16.3429 1.09013 16.666C0.93448 16.9964 0.692191 17.5825 0.763132 18.2965C0.84753 19.1459 1.2898 19.9192 1.97917 20.4226C2.55862 20.8458 3.18661 20.9341 3.55033 20.9674C3.90601 21.0001 4.33149 21 4.73168 20.9999H19.2683C19.6685 21 20.094 21.0001 20.4497 20.9674C20.8134 20.9341 21.4414 20.8458 22.0209 20.4226C22.7102 19.9192 23.1525 19.1459 23.2369 18.2965C23.3078 17.5825 23.0656 16.9964 22.9099 16.666C22.7577 16.3429 22.5419 15.9761 22.3389 15.6312L15.0701 3.27438ZM13.2794 6.79987L12.8794 14.7999H11.1194L10.7194 6.79987H13.2794ZM11.9994 18.1599C11.2794 18.1599 10.7194 17.5999 10.7194 16.9599C10.7194 16.3199 11.2794 15.7599 11.9994 15.7599C12.7194 15.7599 13.2794 16.3199 13.2794 16.9599C13.2794 17.5999 12.7194 18.1599 11.9994 18.1599Z" fill="#A36500"></path></svg>