<svg xmlns:xlink="http://www.w3.org/1999/xlink" xmlns="http://www.w3.org/2000/svg" height="48" width="144" fill="var(--usage-color-background-default)" x="0px" y="0px" viewBox="0 0 131 44" aria-hidden="true"><path d="M95.752,9.966l0.07,0.861h0.036c0.259-0.448,0.883-0.99,1.838-0.99c1.002,0,2.039,0.648,2.039,2.463v3.406 h-1.45v-3.242c0-0.825-0.307-1.45-1.096-1.45c-0.578,0-0.978,0.413-1.132,0.849c-0.047,0.118-0.07,0.295-0.07,0.46v3.383h-1.45 v-4.031c0-0.661-0.024-1.214-0.047-1.709H95.752z" fill="#FFFFFF"></path><rect x="74.588" y="7.338" width="1.449" height="8.368" fill="#FFFFFF"></rect><path d="M54.52,7.573c0.495,0,0.802,0.342,0.813,0.79c0,0.424-0.318,0.778-0.825,0.778 c-0.484,0-0.801-0.354-0.801-0.778C53.707,7.916,54.036,7.573,54.52,7.573z" fill="#FFFFFF"></path><rect x="53.789" y="9.966" width="1.449" height="5.74" fill="#FFFFFF"></rect><path d="M43.707,15.706H42.28l-2.133-5.74h1.568l0.93,2.911c0.165,0.507,0.283,0.967,0.389,1.438h0.036 c0.105-0.472,0.236-0.92,0.389-1.438l0.92-2.911h1.521L43.707,15.706z" fill="#FFFFFF"></path><rect x="57.515" y="7.338" width="1.449" height="8.368" fill="#FFFFFF"></rect><path d="M82.795,33.559c-1.012,0.903-2.413,1.351-4.211,1.351c-1.666,0-2.999-0.322-4.005-0.961l0.575-2.063 c1.085,0.639,2.276,0.963,3.572,0.963c0.937,0,1.661-0.213,2.181-0.63c0.517-0.419,0.777-0.98,0.777-1.692 c0-0.618-0.214-1.146-0.64-1.576c-0.432-0.428-1.137-0.822-2.132-1.192c-2.703-1.006-4.057-2.482-4.057-4.422 c0-1.269,0.472-2.311,1.429-3.121c0.955-0.808,2.22-1.214,3.797-1.214c1.405,0,2.575,0.246,3.509,0.732l-0.625,2.018 c-0.871-0.472-1.861-0.712-2.965-0.712c-0.873,0-1.558,0.222-2.05,0.639c-0.411,0.388-0.618,0.854-0.618,1.403 c0,0.607,0.237,1.113,0.71,1.517c0.414,0.365,1.163,0.761,2.245,1.188c1.334,0.531,2.309,1.162,2.938,1.882 c0.625,0.718,0.94,1.611,0.94,2.679C84.165,31.665,83.705,32.738,82.795,33.559z" fill="#FFFFFF"></path><path d="M91.524,25.395h-2.733v5.417c0,1.374,0.485,2.056,1.449,2.056c0.443,0,0.807-0.033,1.099-0.108l0.07,1.876 c-0.49,0.183-1.131,0.276-1.926,0.276c-0.973,0-1.743-0.294-2.291-0.894c-0.555-0.593-0.829-1.596-0.829-3.002v-5.621h-1.626V23.54 h1.626V21.5l2.428-0.733v2.773h2.733V25.395z" fill="#FFFFFF"></path><path d="M104.242,9.966h0.813V8.893l1.427-0.401v1.474h1.378v1.084h-1.378v2.534c0,0.708,0.188,1.061,0.742,1.061 c0.259,0,0.401-0.012,0.566-0.059l0.024,1.096c-0.213,0.082-0.601,0.154-1.049,0.154c-0.542,0-0.979-0.177-1.25-0.472 c-0.318-0.33-0.46-0.861-0.46-1.615V11.05h-0.813V9.966z" fill="#FFFFFF"></path><path d="M110.598,25.718c-0.244-0.044-0.506-0.063-0.78-0.063c-0.871,0-1.542,0.329-2.017,0.984 c-0.414,0.582-0.619,1.306-0.619,2.199v5.847h-2.476v-7.639c0-1.277-0.022-2.447-0.066-3.505h2.155l0.092,2.133h0.068 c0.258-0.731,0.669-1.322,1.238-1.762c0.551-0.402,1.149-0.595,1.791-0.595c0.227,0,0.435,0.012,0.615,0.042V25.718z" fill="#FFFFFF"></path><path d="M110.974,12.264v3.442h-1.449V7.338h1.449v3.406h0.024c0.177-0.271,0.425-0.495,0.719-0.648 c0.295-0.166,0.636-0.26,1.002-0.26c0.978,0,2.004,0.648,2.004,2.487v3.383h-1.45v-3.229c0-0.825-0.307-1.462-1.108-1.462 c-0.566,0-0.967,0.378-1.131,0.814C110.986,11.958,110.974,12.111,110.974,12.264z" fill="#FFFFFF"></path><path d="M37.151,7.762H35.3l-2.547,7.944h1.497l0.684-2.251h2.511l0.718,2.251h1.567L37.151,7.762z M35.171,12.359 l0.612-1.957c0.13-0.472,0.26-1.025,0.377-1.485h0.025c0.118,0.459,0.247,1.001,0.401,1.485l0.624,1.957H35.171z" fill="#FFFFFF"></path><path d="M56.617,24.873c-0.884-1.042-1.978-1.558-3.293-1.558c-1.684,0-2.935,0.664-3.765,1.99h-0.043L49.38,23.54 h-2.178c0.063,1.252,0.095,2.47,0.095,3.662v12.001h2.475v-5.852c0.644,1.059,1.702,1.585,3.181,1.585 c1.366,0,2.514-0.489,3.434-1.464c1.033-1.103,1.548-2.595,1.548-4.496C57.934,27.282,57.493,25.911,56.617,24.873z M54.631,31.91 c-0.519,0.721-1.25,1.077-2.18,1.077c-0.794,0-1.44-0.281-1.936-0.834c-0.5-0.558-0.744-1.243-0.744-2.055v-1.855 c0-0.2,0.038-0.45,0.113-0.757c0.154-0.658,0.477-1.189,0.975-1.599c0.498-0.405,1.049-0.606,1.66-0.606 c0.903,0,1.62,0.374,2.158,1.104c0.49,0.701,0.731,1.597,0.731,2.679C55.408,30.245,55.151,31.192,54.631,31.91z" fill="#FFFFFF"></path><path d="M101.728,24.944c-0.994-1.09-2.307-1.628-3.949-1.628c-1.697,0-3.042,0.543-4.044,1.648 c-1.001,1.099-1.5,2.515-1.5,4.241c0,1.648,0.483,3.022,1.453,4.105c0.969,1.086,2.277,1.627,3.915,1.627 c1.693,0,3.053-0.564,4.08-1.693c0.978-1.104,1.464-2.505,1.464-4.222C103.147,27.357,102.673,25.992,101.728,24.944z M99.888,31.725c-0.532,0.906-1.276,1.351-2.218,1.351c-0.968,0-1.717-0.44-2.247-1.324c-0.448-0.731-0.668-1.605-0.668-2.63 c0-1.053,0.219-1.942,0.668-2.671c0.517-0.885,1.275-1.325,2.265-1.325c0.964,0,1.703,0.44,2.23,1.325 c0.441,0.729,0.662,1.608,0.662,2.628S100.35,30.986,99.888,31.725z" fill="#FFFFFF"></path><path d="M68.858,24.873c-0.879-1.042-1.976-1.558-3.291-1.558c-1.681,0-2.93,0.664-3.761,1.99h-0.043L61.62,23.54 h-2.173c0.06,1.252,0.092,2.47,0.092,3.662v12.001h2.477v-5.852c0.644,1.059,1.704,1.585,3.179,1.585 c1.369,0,2.512-0.489,3.435-1.464c1.033-1.103,1.548-2.595,1.548-4.496C70.177,27.282,69.739,25.911,68.858,24.873z M66.876,31.91 c-0.52,0.721-1.245,1.077-2.182,1.077c-0.791,0-1.438-0.281-1.934-0.834c-0.499-0.558-0.744-1.243-0.744-2.055v-1.855 c0-0.2,0.036-0.45,0.112-0.757c0.154-0.658,0.48-1.189,0.977-1.599c0.499-0.405,1.047-0.606,1.661-0.606 c0.901,0,1.62,0.374,2.159,1.104c0.488,0.701,0.734,1.597,0.734,2.679C67.658,30.245,67.397,31.192,66.876,31.91z" fill="#FFFFFF"></path><path d="M40.783,19.231h-3.076l-4.971,15.453h2.565l1.378-4.536h5.023l1.443,4.536h2.639L40.783,19.231z M37.113,28.243 l1.284-4.036c0.339-1.286,0.581-2.255,0.736-2.912h0.043c0.38,1.526,0.643,2.497,0.784,2.912l1.302,4.036H37.113z" fill="#FFFFFF"></path><path d="M121.284,28.587c0-1.391-0.331-2.562-0.986-3.513c-0.823-1.191-2.036-1.786-3.646-1.786 c-1.633,0-2.932,0.595-3.9,1.786c-0.915,1.121-1.376,2.516-1.376,4.201c0,1.711,0.497,3.075,1.482,4.091 c0.986,1.016,2.343,1.522,4.066,1.522c1.441,0,2.689-0.224,3.74-0.686l-0.39-1.722c-0.902,0.357-1.901,0.532-3.004,0.532 c-0.995,0-1.804-0.26-2.429-0.781c-0.69-0.58-1.05-1.418-1.079-2.517h7.43C121.252,29.402,121.284,29.027,121.284,28.587z M113.764,27.941c0.074-0.745,0.321-1.388,0.734-1.922c0.506-0.668,1.163-1.014,1.971-1.014c0.885,0,1.544,0.349,1.974,1.034 c0.335,0.538,0.492,1.17,0.479,1.901H113.764z" fill="#FFFFFF"></path><path d="M70.542,9.837c-0.861,0-1.486,0.365-1.839,0.919h-0.024V7.338h-1.449v6.753c0,0.59-0.024,1.226-0.047,1.615 h1.238l0.07-0.86h0.024c0.412,0.708,1.072,0.99,1.815,0.99c1.297,0,2.605-1.025,2.605-3.089 C72.946,11.003,71.945,9.837,70.542,9.837z M70,14.692c-0.624,0-1.131-0.425-1.284-1.013c-0.024-0.106-0.036-0.224-0.036-0.342 v-0.931c0-0.142,0.024-0.271,0.048-0.378c0.153-0.636,0.695-1.061,1.284-1.061c0.966,0,1.449,0.825,1.449,1.839 C71.461,13.973,70.908,14.692,70,14.692z" fill="#FFFFFF"></path><path d="M83.005,12.63c0-1.261-0.614-2.794-2.475-2.794c-1.839,0-2.805,1.497-2.805,3.089 c0,1.756,1.096,2.899,2.958,2.899c0.825,0,1.508-0.153,2.003-0.365l-0.212-0.991c-0.448,0.154-0.919,0.259-1.591,0.259 c-0.931,0-1.733-0.448-1.768-1.485h3.842C82.981,13.114,83.005,12.901,83.005,12.63z M79.115,12.229 c0.059-0.589,0.436-1.403,1.332-1.403c0.966,0,1.202,0.872,1.19,1.403H79.115z" fill="#FFFFFF"></path><path d="M90.221,9.837c-1.733,0-2.97,1.155-2.97,3.041c0,1.85,1.261,2.958,2.876,2.958c1.461,0,2.947-0.943,2.947-3.053 C93.074,11.039,91.93,9.837,90.221,9.837z M90.175,14.787c-0.873,0-1.427-0.837-1.427-1.945c0-0.955,0.412-1.956,1.438-1.956 c0.99,0,1.391,1.037,1.391,1.933C91.577,13.985,91,14.787,90.175,14.787z" fill="#FFFFFF"></path><path d="M65.708,14.327v-2.063c0-1.261-0.531-2.428-2.37-2.428c-0.907,0-1.65,0.247-2.074,0.507l0.283,0.943 c0.389-0.247,0.978-0.425,1.544-0.425c1.013,0,1.166,0.625,1.166,1.002v0.094c-2.122-0.012-3.406,0.731-3.406,2.169 c0,0.872,0.648,1.709,1.804,1.709c0.754,0,1.356-0.319,1.697-0.766h0.035l0.106,0.636h1.308 C65.731,15.353,65.708,14.846,65.708,14.327z M64.293,13.69c0,0.106,0,0.213-0.035,0.319c-0.141,0.413-0.554,0.79-1.144,0.79 c-0.459,0-0.825-0.26-0.825-0.825c0-0.872,0.978-1.084,2.003-1.072V13.69z" fill="#FFFFFF"></path><path d="M121.231,12.63c0-1.261-0.614-2.794-2.475-2.794c-1.839,0-2.805,1.497-2.805,3.089 c0,1.756,1.096,2.899,2.958,2.899c0.825,0,1.508-0.153,2.003-0.365l-0.212-0.991c-0.447,0.154-0.919,0.259-1.591,0.259 c-0.931,0-1.733-0.448-1.768-1.485h3.842C121.207,13.114,121.231,12.901,121.231,12.63z M117.341,12.229 c0.059-0.589,0.436-1.403,1.332-1.403c0.966,0,1.203,0.872,1.19,1.403H117.341z" fill="#FFFFFF"></path><path d="M51.547,14.327v-2.063c0-1.261-0.531-2.428-2.369-2.428c-0.908,0-1.651,0.247-2.075,0.507l0.283,0.943 c0.389-0.247,0.978-0.425,1.544-0.425c1.013,0,1.167,0.625,1.167,1.002v0.094c-2.122-0.012-3.406,0.731-3.406,2.169 c0,0.872,0.648,1.709,1.803,1.709c0.754,0,1.355-0.319,1.697-0.766h0.035l0.106,0.636h1.309 C51.57,15.353,51.547,14.846,51.547,14.327z M50.132,13.69c0,0.106,0,0.213-0.034,0.319c-0.142,0.413-0.555,0.79-1.144,0.79 c-0.46,0-0.825-0.26-0.825-0.825c0-0.872,0.978-1.084,2.003-1.072V13.69z" fill="#FFFFFF"></path><path d="M23.106,7.376H12.221c-1.4,0-2.542,1.138-2.542,2.537v24.19c0,1.4,1.141,2.534,2.542,2.534h10.886 c1.399,0,2.54-1.135,2.54-2.534V9.913C25.646,8.514,24.505,7.376,23.106,7.376z M16.4,9.947h2.524c0.165,0,0.3,0.135,0.3,0.302 c0,0.158-0.135,0.294-0.3,0.294H16.4c-0.16,0-0.298-0.136-0.298-0.294C16.102,10.082,16.24,9.947,16.4,9.947z M17.662,35.289 c-0.722,0-1.311-0.589-1.311-1.312c0-0.725,0.589-1.315,1.311-1.315c0.726,0,1.313,0.591,1.313,1.315 C18.974,34.7,18.387,35.289,17.662,35.289z M24.103,31.536h-12.88V12.487h12.88V31.536z" fill="#FFFFFF"></path></svg>