<svg xmlns:xlink="http://www.w3.org/1999/xlink" width="40" height="40" viewBox="0 0 24 24" fill="none" xmlns="http://www.w3.org/2000/svg" aria-hidden="true" class="styles__StyledInlineSvg-sc-12l8vvi-0 iIiQzo sc-ac7e6b30-3 cXRoZl fetched-icon" data-testid="appDownloadLogo"><path d="M20.9506 9.06644C20.0784 7.42113 18.3736 6.41016 16.5301 6.41016H2.47575C2.21805 6.41016 2 6.62821 2 6.90573C2 7.02467 2.05947 7.14361 2.13876 7.24272L5.19147 10.3153C5.46899 10.5928 5.8258 10.7514 6.20243 10.7316H16.094C16.8076 10.7316 17.3825 11.2866 17.3825 12.0002C17.3825 12.7139 16.8274 13.2887 16.1138 13.2887H9.31461C9.05691 13.2887 8.83886 13.5068 8.83886 13.7843C8.83886 13.9033 8.89833 14.0222 8.97762 14.1213L12.0303 17.1939C12.3078 17.4714 12.6647 17.6102 13.0611 17.6102H16.1535C20.1577 17.6102 23.1905 13.3284 20.9506 9.06644Z" fill="#EB1700"></path></svg>