<svg xmlns:xlink="http://www.w3.org/1999/xlink" width="16" height="16" viewBox="0 0 16 16" fill="none" xmlns="http://www.w3.org/2000/svg" aria-hidden="true" class="styles__StyledInlineSvg-sc-12l8vvi-0 iIiQzo fetched-icon"><path fill-rule="evenodd" clip-rule="evenodd" d="M12.5 16C13.6046 16 14.5 15.1046 14.5 14C14.5 13.5 14.37 13.0462 14.37 13.0462C14.2499 12.5658 14.0117 11.9323 13.5375 11.3C12.5198 9.94301 10.738 9 8 9C5.26202 9 3.48025 9.94301 2.4625 11.3C1.98825 11.9323 1.75013 12.5658 1.63003 13.0462C1.63003 13.0462 1.5 13.5 1.5 14C1.5 15.1046 2.39543 16 3.5 16H12.5ZM12.5 14C12.5 14 12.5 12.8726 11.4633 12C10.8088 11.4492 9.74133 11 8 11C6.25867 11 5.19116 11.4492 4.53675 12C3.5 12.8726 3.5 14 3.5 14H12.5Z" fill="#191919"></path><path fill-rule="evenodd" clip-rule="evenodd" d="M12 4C12 6.20914 10.2091 8 8 8C5.79086 8 4 6.20914 4 4C4 1.79086 5.79086 0 8 0C10.2091 0 12 1.79086 12 4ZM8 6C9.10457 6 10 5.10457 10 4C10 2.89543 9.10457 2 8 2C6.89543 2 6 2.89543 6 4C6 5.10457 6.89543 6 8 6Z" fill="#191919"></path></svg>