<svg xmlns:xlink="http://www.w3.org/1999/xlink" width="24" height="24" viewBox="0 0 24 24" fill="none" xmlns="http://www.w3.org/2000/svg" aria-hidden="true" class="styles__StyledInlineSvg-sc-12l8vvi-0 iIiQzo fetched-icon"><path fill-rule="evenodd" clip-rule="evenodd" d="M12 22C17.5228 22 22 17.5228 22 12C22 6.47715 17.5228 2 12 2C6.47715 2 2 6.47715 2 12C2 17.5228 6.47715 22 12 22ZM12.0153 19.9969C12.0049 20.0001 11.9999 20 11.9999 20C11.9999 20 11.9948 20 11.9847 19.9969C11.9736 19.9935 11.9515 19.9852 11.9186 19.9649C11.8494 19.9225 11.7455 19.8359 11.6177 19.6738C11.3575 19.3436 11.0794 18.8038 10.8274 18.0477C10.3973 16.7574 10.0955 14.9972 10.019 13H13.981C13.9045 14.9972 13.6027 16.7574 13.1726 18.0477C12.9206 18.8038 12.6425 19.3436 12.3823 19.6738C12.2545 19.8359 12.1506 19.9225 12.0814 19.9649C12.0485 19.9852 12.0264 19.9935 12.0153 19.9969ZM13.981 11H10.019C10.0955 9.00275 10.3973 7.24257 10.8274 5.95227C11.0794 5.19616 11.3575 4.65642 11.6177 4.32624C11.7455 4.16408 11.8494 4.07752 11.9186 4.03507C11.9515 4.01483 11.9736 4.00645 11.9847 4.00305C11.9943 4.00013 11.9996 4.00001 12 4C12.0004 4 12.0056 4.0001 12.0153 4.00305C12.0264 4.00645 12.0485 4.01483 12.0814 4.03507C12.1506 4.07752 12.2545 4.16408 12.3823 4.32624C12.6425 4.65642 12.9206 5.19616 13.1726 5.95227C13.6027 7.24257 13.9045 9.00275 13.981 11ZM15.9823 13C15.9051 15.1737 15.5782 17.1555 15.07 18.6802C14.9736 18.9694 14.8687 19.2483 14.7548 19.5131C17.5154 18.5005 19.5628 16.0099 19.9381 13H15.9823ZM19.9381 11H15.9823C15.9051 8.8263 15.5782 6.84448 15.07 5.31981C14.9736 5.03058 14.8687 4.7517 14.7548 4.48695C17.5154 5.49947 19.5628 7.9901 19.9381 11ZM8.01766 11C8.09487 8.8263 8.42177 6.84448 8.93 5.31981C9.02641 5.03057 9.13134 4.7517 9.24521 4.48695C6.48461 5.49947 4.43722 7.9901 4.06189 11H8.01766ZM4.06189 13C4.43722 16.0099 6.48461 18.5005 9.24521 19.5131C9.13134 19.2483 9.02641 18.9694 8.93 18.6802C8.42177 17.1555 8.09487 15.1737 8.01766 13H4.06189Z" fill="#191919"></path></svg>